<svg xmlns="http://www.w3.org/2000/svg" xmlns:xlink="http://www.w3.org/1999/xlink" width="370" height="100" viewBox="0 0 370 100">
  <defs>
    <clipPath id="clip-path">
      <path id="Path_2" data-name="Path 2" d="M0,40.206H350.241V-48.863H0Z" transform="translate(0 0)" fill="none"/>
    </clipPath>
    <clipPath id="clip-custom_1">
      <rect width="370" height="100"/>
    </clipPath>
  </defs>
  <g id="custom_1" data-name="custom – 1" clip-path="url(#clip-custom_1)">
    <rect width="370" height="100" fill="#fff"/>
    <g id="Group_2" data-name="Group 2" transform="translate(10 53.863)" clip-path="url(#clip-path)">
      <g id="Group_1" data-name="Group 1" transform="translate(-0.001 -48.863)">
        <path id="Path_1" data-name="Path 1" d="M158.1,13.224V1.013H152.93V11.944c0,1.867-.082,5.015-4.829,5.015s-4.827-3.148-4.827-5.015V1.013H138.1V13.224c0,2.135.266,7.359,10,7.359s10-5.224,10-7.359M136.495,28.045c-4.023,0-5.8,2.645-5.8,5.328,0,3.89,3.059,5.292,5.824,5.292a5.764,5.764,0,0,0,4.264-1.679h.057v1.263c0,1.36-.452,3.02-3.567,3.02-1.661,0-2.944-.217-3.221-1.56h-2.842c.237,2.705,2.9,3.414,6.137,3.414,4.619,0,6.219-2.211,6.219-4.7V28.28h-2.727v1.542H140.8c-.631-1.108-2.191-1.777-4.3-1.777m4.342,5.252a3.247,3.247,0,0,1-3.513,3.274c-2.86,0-3.788-1.7-3.788-3.234a3.281,3.281,0,0,1,3.553-3.2c1.4,0,3.748.651,3.748,3.163m-10.17-22.47v-.055a4.34,4.34,0,0,0,3.1-4.586c0-1.949-.88-5.173-6.159-5.173H113.76V20.054h5.171V13.065h6.427c1.6,0,2.751.665,2.751,3.334,0,2,.024,2.773.5,3.655h5.654c-.908-.961-.986-3.2-.986-4.134,0-1.868-.348-4.75-2.616-5.093m-2.4-3.813a2.31,2.31,0,0,1-2.479,2.424h-6.858v-4.8h6.588c1.256,0,2.749.481,2.749,2.375m-17.49,31.768h2.727V24.452h-2.727Zm-2.266-25.558V1.013h-5.173V11.944c0,1.867-.078,5.015-4.825,5.015s-4.829-3.148-4.829-5.015V1.013H88.512V13.224c0,2.135.266,7.359,10,7.359s10-5.224,10-7.359m-19.9,14.821A5.047,5.047,0,0,0,84.486,29.9h-.038V28.32H81.726V38.782h2.721V33.156a3.007,3.007,0,0,1,3.259-3.022c2.248,0,2.623,1.285,2.623,2.412v6.236h2.727V31.676c0-2.822-2.193-3.631-4.44-3.631m-7.751-7.991H83.48V9.438H73.771v3.307h4.614c-.612,3.148-2.8,4.214-5.625,4.214-4.7,0-6.345-3.469-6.345-6.425s1.65-6.427,6.345-6.427c1.867,0,4.08.691,4.852,3.143h5.762c-.931-5.224-5.921-6.77-11.2-6.77-7.2,0-11.254,4.16-11.254,10.055,0,7.069,4.322,10.049,11.254,10.049,3.307,0,6.189-.8,8-2.745ZM59.5,27.927c-4.047,0-6.477,2.249-6.477,5.627,0,2.882,1.8,5.622,6.477,5.622.729,0,5.17-.058,5.8-4.4H62.46c-.571,1.478-1.145,2.306-3.257,2.306a3.209,3.209,0,0,1-3.332-3.527A3.356,3.356,0,0,1,59.5,30.018a2.756,2.756,0,0,1,2.9,1.976h2.842c-.572-3.533-4.163-4.067-5.742-4.067m-6.628-7.873h5.569L50.072,1.013H43.831L35.457,20.054h5.574l1.548-3.923h8.748Zm-2.933-7.392H43.966l2.986-7.543ZM30,10.827v-.055a4.338,4.338,0,0,0,3.093-4.586c0-1.949-.879-5.173-6.161-5.173H13.093V20.054h5.173V13.065h6.425c1.6,0,2.747.665,2.747,3.334,0,2,.027,2.773.507,3.655H33.6c-.906-.961-.988-3.2-.988-4.134,0-1.868-.345-4.75-2.612-5.093M27.6,7.013a2.309,2.309,0,0,1-2.481,2.424H18.266v-4.8h6.586c1.252,0,2.747.481,2.747,2.375M12.8,52.934c0,1.8,1.121,3.514,4.047,3.514.456,0,3.23-.036,3.626-2.751H18.7a1.824,1.824,0,0,1-2.036,1.447,2.01,2.01,0,0,1-2.083-2.211,2.1,2.1,0,0,1,2.269-2.207,1.724,1.724,0,0,1,1.814,1.236H20.44c-.359-2.207-2.6-2.543-3.589-2.543-2.528,0-4.047,1.407-4.047,3.514m-.574-19.38c0-2.886-1.8-5.627-6.475-5.627S-.719,30.668-.719,33.554s1.8,5.622,6.475,5.622,6.475-2.74,6.475-5.622m-2.844,0a3.291,3.291,0,0,1-3.631,3.527,3.291,3.291,0,0,1-3.631-3.527,3.3,3.3,0,0,1,3.631-3.536,3.3,3.3,0,0,1,3.631,3.536m-5.142-13.5H9.817L1.445,1.013H-4.8l-8.374,19.041H-7.6l1.548-3.923H2.7ZM1.312,12.662H-4.662l2.986-7.543Zm-22.767,7.392h5.013V1.013h-7.6L-29.7,14.72-35.349,1.013h-7.6V20.054h5.013V4.8h.053l6.028,15.257h4.318L-21.508,4.8h.053Zm-25.29,7.873c-3.709,0-6.3,2.231-6.3,5.722,0,2.787,1.757,5.527,6.475,5.527,3.987,0,5.407-2.306,6-3.472h-2.962a3.182,3.182,0,0,1-3.117,1.5c-2.705,0-3.494-1.8-3.556-2.962h9.871v-.394c0-3.062-1.775-5.921-6.415-5.921m3.573,4.577H-50.2a3.388,3.388,0,0,1,3.5-2.721A3.327,3.327,0,0,1-43.173,32.5M-48.2,13.224V1.013H-53.37V11.944c0,1.867-.08,5.015-4.827,5.015s-4.827-3.148-4.827-5.015V1.013H-68.2V13.224c0,2.135.266,7.359,10,7.359s10-5.224,10-7.359m-23.166,6.83L-80.776,8.665l8.746-7.652h-6.961L-87.843,9.2V1.013h-5.175V20.054h5.175V14.4l3.011-2.587,6.482,8.241Zm-22.12,13.5c0,2.882,1.794,5.622,6.475,5.622.729,0,5.171-.058,5.8-4.4h-2.84c-.572,1.478-1.145,2.306-3.257,2.306a3.21,3.21,0,0,1-3.336-3.527,3.359,3.359,0,0,1,3.633-3.536,2.749,2.749,0,0,1,2.9,1.976h2.844c-.571-3.533-4.165-4.067-5.742-4.067-4.049,0-6.475,2.249-6.475,5.627m-10.654-7.142,1.281-.981-.122-1.316-1.549-.634a8.15,8.15,0,0,1-2.315-2.492c-1.221-1.661-2.7-3.671-4.945-4.535,1.106-2.036.975-4.444.866-6.438a9.293,9.293,0,0,1,.235-3.731l.6-1.307.175-.432-.58-.86-1.9.2a7.331,7.331,0,0,1-3.1-1.043l-.133-.064a13.36,13.36,0,0,0-5.634-1.7,6.89,6.89,0,0,0-.778.046c.007-2.313-1.24-4.364-2.271-6.059a8.965,8.965,0,0,1-1.548-3.4l-.14-2.136a3.482,3.482,0,0,1-.791-.343l-1.721,1.179a8.079,8.079,0,0,1-3.37.558c-2.031.106-4.488.23-6.418,1.568-1.064-2.016-3.088-3.246-4.779-4.276A8.951,8.951,0,0,1-146-14.08l-1.181-1.97c-.06,0-.117.007-.18.007a4.118,4.118,0,0,1-.481-.027l-1.112,2.06a8.191,8.191,0,0,1-2.718,2.043c-1.67.981-3.874,2.271-4.995,4.426-1.987-1.393-4.533-1.518-6.466-1.617a8.138,8.138,0,0,1-3.35-.554l-1.732-1.183-.8.532-.124,1.947a9.042,9.042,0,0,1-1.549,3.4c-1.034,1.7-2.28,3.748-2.273,6.066A6.482,6.482,0,0,0-173.737,1a13.364,13.364,0,0,0-5.642,1.708l-.1.047a8.7,8.7,0,0,1-2.975,1.059c-.067,0-.095,0-.137-.005l-1.887-.2-.607.922.766,1.679a9.062,9.062,0,0,1,.235,3.728c-.113,1.991-.248,4.4.864,6.444-2.237.859-3.715,2.864-4.942,4.526a8.1,8.1,0,0,1-2.32,2.5l-1.54.631-.122,1.329,1.276.973a8.992,8.992,0,0,1,1.961,3.175c.835,1.8,1.843,3.972,3.768,5.252-1.553,1.854-1.91,4.384-2.186,6.318a8.225,8.225,0,0,1-.859,3.283l-.933,1.132.184.452c.075.182.148.363.222.541l.179.419,1.4.222a9.005,9.005,0,0,1,3.223,1.856c1.491,1.117,3.494,2.619,5.833,2.827-.532,2.377.33,4.8.986,6.642a8.227,8.227,0,0,1,.775,3.323l-.252,1.232.372.31c.206.171.416.345.625.51l.35.284,1.116-.381a10.655,10.655,0,0,1,3.757.14,21.569,21.569,0,0,0,3.339.339,7.91,7.91,0,0,0,3.024-.552c.664,2.315,2.534,4.023,3.952,5.317a8.194,8.194,0,0,1,2.235,2.572l.31,1.061.472.1c.31.066.623.133.935.193l.447.087.711-.76a8.972,8.972,0,0,1,3.359-1.639,12.9,12.9,0,0,0,5.06-2.705c1.544,2.053,4,2.893,6.03,3.586l.1.035a17.078,17.078,0,0,1,2.388.942l.35.186.3-.069c.348-.078.691-.16,1.032-.252l.3-.077.224-.326a19.921,19.921,0,0,1,1.34-1.653l.106-.12c1.369-1.566,3.179-3.638,3.562-6.314a8.025,8.025,0,0,0,2.787.463,21.769,21.769,0,0,0,3.378-.352,10.46,10.46,0,0,1,3.717-.135l1.05.361.352-.283c.226-.182.452-.365.676-.552l.372-.314-.241-1.167a8.24,8.24,0,0,1,.777-3.321c.653-1.836,1.518-4.256.988-6.637,2.289-.19,4.156-1.582,5.828-2.829a8.985,8.985,0,0,1,3.228-1.861l1.354-.213.179-.412c.082-.193.16-.383.241-.574l.186-.452-.91-1.11a8.312,8.312,0,0,1-.862-3.318c-.272-1.912-.631-4.437-2.184-6.287,1.932-1.283,2.94-3.462,3.786-5.29a8.965,8.965,0,0,1,1.943-3.137m-.168-1.311-.915.7a9.357,9.357,0,0,0-2.173,3.434c-.921,1.989-2.02,4.353-4.318,5.326,2,1.635,2.384,4.364,2.689,6.52A8.238,8.238,0,0,0-108,44.735l.594.722c-.078.186-.155.374-.233.556l-.9.14a9.274,9.274,0,0,0-3.54,1.987c-1.662,1.24-3.549,2.65-5.789,2.65a4.831,4.831,0,0,1-.587-.033c1.05,2.4.111,5.033-.625,7.094a8.171,8.171,0,0,0-.793,3.706l.139.684c-.213.18-.436.357-.653.534l-.62-.211a9.853,9.853,0,0,0-4.049.1,20.969,20.969,0,0,1-3.208.334,6.465,6.465,0,0,1-3.485-.9c.106,2.951-1.848,5.191-3.381,6.945a21.014,21.014,0,0,0-1.484,1.826l-.053.075c-.328.082-.664.164-1,.242l-.077-.042a17.911,17.911,0,0,0-2.568-1.017c-2.217-.755-4.852-1.653-6.112-4.138-1.281,1.854-3.491,2.621-5.368,3.279a9.216,9.216,0,0,0-3.622,1.817l-.4.425c-.3-.058-.605-.12-.906-.19l-.173-.587a8.107,8.107,0,0,0-2.432-2.9c-1.593-1.458-3.613-3.3-3.857-5.862a6.4,6.4,0,0,1-3.569.952,21.174,21.174,0,0,1-3.2-.332,9.913,9.913,0,0,0-4.052-.1l-.684.237c-.2-.162-.4-.326-.6-.5l.153-.742a8.169,8.169,0,0,0-.8-3.711c-.733-2.069-1.668-4.692-.622-7.094-2.439.272-4.572-1.267-6.378-2.618a9.271,9.271,0,0,0-3.534-1.983l-.939-.149c-.073-.175-.144-.35-.215-.527l.614-.747A8.2,8.2,0,0,0-185.981,41c.306-2.155.695-4.882,2.691-6.52-2.3-.968-3.394-3.336-4.32-5.323a9.322,9.322,0,0,0-2.176-3.436l-.906-.691c.011-.126.022-.252.035-.377l1.072-.439a8.09,8.09,0,0,0,2.63-2.731c1.334-1.806,2.958-4.014,5.512-4.47-1.6-1.938-1.46-4.557-1.334-6.783a9.325,9.325,0,0,0-.3-4.056l-.569-1.25c.027-.044.055-.087.084-.129l1.373.144a7.983,7.983,0,0,0,3.6-1.156,12.53,12.53,0,0,1,5.217-1.606,5.6,5.6,0,0,1,1.67.25c-.478-2.452.873-4.681,2.027-6.571a9.364,9.364,0,0,0,1.644-3.722l.1-1.522s0,0,0,0l1.26.86a8.128,8.128,0,0,0,3.719.684c2.171.109,4.929.248,6.741,2.12.746-2.5,3.132-3.9,5.011-5a8.162,8.162,0,0,0,2.982-2.33l.727-1.351.787,1.314a9.277,9.277,0,0,0,3.166,2.541c1.87,1.136,4.072,2.472,4.8,4.84,1.772-1.814,4.44-1.945,6.706-2.06a8.115,8.115,0,0,0,3.719-.689l1.265-.866.1,1.533a9.274,9.274,0,0,0,1.644,3.72c1.15,1.892,2.5,4.114,2.025,6.571a5.634,5.634,0,0,1,1.672-.252,12.6,12.6,0,0,1,5.217,1.6,8.042,8.042,0,0,0,3.6,1.165l1.415-.149c.02.031.044.06.062.091l-.591,1.291a9.363,9.363,0,0,0-.3,4.058c.12,2.222.264,4.843-1.334,6.781,2.556.459,4.182,2.663,5.512,4.475a8.155,8.155,0,0,0,2.627,2.727l1.079.443c.013.122.024.244.035.365m-20.089,27.388a32.568,32.568,0,0,0,9.574-23.106,32.574,32.574,0,0,0-9.574-23.106A32.557,32.557,0,0,0-147.5-3.293a32.557,32.557,0,0,0-23.106,9.57,32.563,32.563,0,0,0-9.57,23.106,32.549,32.549,0,0,0,9.57,23.1A32.56,32.56,0,0,0-147.5,62.061a32.566,32.566,0,0,0,23.106-9.572m7.78-23.106a30.777,30.777,0,0,1-9.045,21.839A30.785,30.785,0,0,1-147.5,60.269a30.764,30.764,0,0,1-21.838-9.047,30.773,30.773,0,0,1-9.049-21.839,30.779,30.779,0,0,1,9.049-21.839A30.77,30.77,0,0,1-147.5-1.5,30.791,30.791,0,0,1-125.66,7.544a30.784,30.784,0,0,1,9.045,21.839m-9.84,16.11,2,.182.343-.45-2.516-.182-1.158-.888-.29.377,1.159.886.849,2.364.328-.427Zm2.023-1.8a1.385,1.385,0,0,0,1.775-.782,1.733,1.733,0,0,0-.89-2.421,1.714,1.714,0,0,0-2.4.631,1.4,1.4,0,0,0-.082,1.261l-.45-.1-.144.264,1.65.9.751-1.374-.354-.191-.543,1a1.077,1.077,0,0,1-.476-1.564,1.285,1.285,0,0,1,1.837-.394,1.313,1.313,0,0,1,.744,1.8.967.967,0,0,1-1.2.556Zm1.336-4.036a1.713,1.713,0,0,0,2.326-1.006,1.714,1.714,0,0,0-1.209-2.229,1.715,1.715,0,0,0-2.328,1.006,1.715,1.715,0,0,0,1.21,2.229m.153-.448a1.3,1.3,0,0,1-.984-1.651,1.3,1.3,0,0,1,1.792-.687,1.3,1.3,0,0,1,.986,1.65,1.3,1.3,0,0,1-1.794.689m.129-5.665,3.117.589.087-.467-3.511-.664-.437,2.324.394.075Zm3.567-2.962a1.713,1.713,0,0,0-1.8-1.788,1.715,1.715,0,0,0-1.941,1.631,1.715,1.715,0,0,0,1.8,1.788,1.712,1.712,0,0,0,1.939-1.631m-.4-.016a1.3,1.3,0,0,1-1.52,1.172c-.722-.029-1.456-.423-1.422-1.292a1.3,1.3,0,0,1,1.522-1.176c.72.029,1.455.425,1.42,1.3m-3.241-2.678,3.545-.417-.051-.447-2.876.339,0-.009,2.658-2.207-.06-.5-3.547.416.055.448,2.844-.335v.011l-2.627,2.186Zm-.536-3.853,3.438-.973-.133-.458-1.477.419-.514-1.81,1.478-.419-.129-.456-3.434.975.128.456,1.575-.447.514,1.81-1.575.447Zm1.622-6.446a1.7,1.7,0,0,0-2.419-.742,1.64,1.64,0,0,0-.993,2.28,1.455,1.455,0,0,0,1.95.8l-.2-.432a1.01,1.01,0,0,1-1.369-.5c-.359-.777.106-1.391.846-1.734a1.261,1.261,0,0,1,1.821.49.943.943,0,0,1-.266,1.229l.2.43a1.367,1.367,0,0,0,.434-1.823m-1.744-2.342.335-.219-1.354-2.062-2.982,1.963,1.362,2.073.335-.221-1.1-1.675,1.034-.68,1.017,1.553.337-.221-1.021-1.551.948-.623Zm-2.018-2.977.3-.264-1.874-2.155-.3.262.784.9-2.4,2.08.315.359,2.39-2.082Zm-4.01-4.152.244-.317-1.863-1.427-2.175,2.836.377.288,1-1.3,1.3,1,.244-.319-1.3-1,.691-.9Zm-3.637-1a1.718,1.718,0,0,0-.589-2.468,1.715,1.715,0,0,0-2.4.809,1.711,1.711,0,0,0,.587,2.464,1.715,1.715,0,0,0,2.4-.806m-.416-.231a1.3,1.3,0,0,1-1.794.687,1.3,1.3,0,0,1-.366-1.885,1.3,1.3,0,0,1,1.794-.687,1.3,1.3,0,0,1,.366,1.885m-4.872-3.824.111-.383L-140.751,2l-.993,3.429,2.384.689.111-.383-1.927-.558.345-1.187,1.781.516.109-.383-1.779-.518.314-1.09Zm-4.382-.39.47.062a1.387,1.387,0,0,0-1.367-1.376,1.732,1.732,0,0,0-1.938,1.7,1.712,1.712,0,0,0,1.451,2.007,1.4,1.4,0,0,0,1.2-.377l.069.458.3.038.242-1.863-1.551-.2-.053.4,1.13.149a1.075,1.075,0,0,1-1.287,1.006,1.283,1.283,0,0,1-1.028-1.571c.1-.76.552-1.456,1.411-1.345a.969.969,0,0,1,.95.917m-1.847,8.538-1.8.02v0l-.576-1.708,0,.011-.534,1.712,0,0-1.8.02,1.471,1.044-.538,1.719,0,.005,1.449-1.075L-145.6,14l.005.007-.578-1.712,0,0Zm-2.355.724,0,0,0,0Zm0,0h-.007Zm.015-.009-.007,0h0Zm.016.018-.027-.009h0v0h0l0,0v0h0Zm-2.067-7.146,2.481-.049-.007-.4-2.005.042-.026-1.236,1.856-.038-.007-.4-1.857.038-.022-1.136,1.992-.04-.009-.4-2.464.047Zm-3.068.4,2.344-.352-.062-.4-1.87.281-.47-3.139-.47.069Zm-3,.777,2.275-.645-.108-.385-1.819.516-.866-3.051-.458.129ZM-156.763,4.6a1.714,1.714,0,0,0-2.33-1,1.716,1.716,0,0,0-.791,2.41,1.716,1.716,0,0,0,2.33,1,1.716,1.716,0,0,0,.791-2.412m-.957,2.047a1.3,1.3,0,0,1-1.73-.835,1.3,1.3,0,0,1,.523-1.85,1.3,1.3,0,0,1,1.732.835,1.3,1.3,0,0,1-.525,1.85m-2.751.2-.4.261a1.015,1.015,0,0,1-.29,1.429c-.715.472-1.391.1-1.839-.574a1.259,1.259,0,0,1,.208-1.874.941.941,0,0,1,1.256.08l.4-.264A1.365,1.365,0,0,0-163,5.746a1.694,1.694,0,0,0-.37,2.5,1.642,1.642,0,0,0,2.4.64,1.454,1.454,0,0,0,.5-2.045m-.366,4.734.766.543-.281.9v0l.755-.561.764.541,0,0-.3-.891v0l.755-.56-.939.009-.3-.888,0,.005-.277.891,0,0Zm1.234.348,0,0h0l0,0h0v0h0l0,0h0v0Zm-.007,0h0l0,0Zm.009,0,0,0h0Zm4.663-.346.767.543-.281.9,0,0,.755-.561.764.541,0,0-.3-.891v0l.755-.56-.941.009-.3-.888,0,.005-.277.891-.939.009Zm1.234.35,0,0,0,0v0l0,0h0v0h0v0h0Zm-.007,0h0l0,0h0Zm12.022-.35.767.543-.279.9v0l.753-.561.762.541.005,0-.3-.891v0l.753-.56-.939.009-.3-.888,0,.005-.279.891v0Zm1.236.346h0l0,0Zm-.009,0h0l0,0h0Zm6.052-1.256v.005l-.279.891,0,0-.939.011.766.543-.281.9v0l.755-.561.762.541,0,0-.3-.891,0,0,.753-.56-.939.009Zm.013,1.254h0v0h0l0,0h0v0h0l0,0h0v0Zm-.005,0h0v0Zm-28.367,6.218H-163.8V44.717c5.179.02,10.868-2.937,15.518-1.068h1.38c5.337-1.679,10.325.574,15.7,1.068V18.144h-1.03v0c-5.036-.461-9.708-2.57-14.71-1l-1.291,0c-4.357-1.75-9.685,1.021-14.533,1Zm0,.862c4.891-.315,10.14-2.78,14.484-1.035h1.38c4.995-1.569,9.683.3,14.67.953V43.818c-5.036-.461-9.708-2.57-14.71-1h-1.291c-4.357-1.75-9.685,1.019-14.533,1V19.006Zm13.649,1.167c-4.486-1.347-6.929.509-12.105.9V21.3c4.076-.261,8.445-2.231,12.064-.831h.226v-.3Zm-12.105,2.463v.226c4.076-.259,8.445-2.229,12.064-.829h.226v-.3h-.184c-4.486-1.343-6.929.512-12.105.9m0,1.462v.224c4.076-.257,8.445-2.228,12.064-.829h.226v-.3h-.184c-4.486-1.345-6.929.51-12.105.9m0,1.528v.226c4.076-.259,8.445-2.229,12.064-.831h.226v-.3l-.184,0c-4.486-1.347-6.929.509-12.105.9m0,1.528v.226c4.076-.259,8.445-2.229,12.064-.831h.226v-.3h-.184c-4.486-1.345-6.929.51-12.105.9m0,1.528v.226c4.076-.257,8.445-2.229,12.064-.829h.226v-.3h-.184c-4.486-1.345-6.929.51-12.105.9m0,1.528v.228c4.076-.259,8.445-2.231,12.064-.829h.226v-.3h-.184c-4.486-1.345-6.929.51-12.105.9m0,1.529v.226c4.076-.259,8.445-2.231,12.064-.829h.226v-.3h-.184c-4.486-1.345-6.929.51-12.105.9m0,1.528v.226c4.076-.259,8.445-2.229,12.064-.829h.226v-.3h-.184c-4.486-1.343-6.929.512-12.105.9m0,1.529v.224c4.076-.259,8.445-2.229,12.064-.829h.226v-.3h-.184c-4.486-1.343-6.929.512-12.105.9m0,1.528v.224c4.076-.259,8.445-2.228,12.064-.829h.226v-.3h-.184c-4.486-1.343-6.929.512-12.105.9m0,1.528v.226c4.076-.259,8.445-2.229,12.064-.831h.226v-.3h-.184c-4.486-1.343-6.929.512-12.105.9m0,1.528V39.6c4.076-.259,8.445-2.229,12.064-.829h.226v-.3h-.184c-4.486-1.345-6.929.51-12.105.9m0,1.529v.226c4.076-.261,8.445-2.231,12.064-.831h.2V40h-.157c-4.486-1.347-6.929.509-12.105.9m15.155-.8h-.157v.3h.2c3.616-1.4,7.988.571,12.064.829V41c-5.177-.39-7.621-2.248-12.107-.9m12.18-.5v-.226c-5.179-.39-7.621-2.246-12.107-.9h-.184v.3h.226c3.617-1.4,7.989.571,12.065.829m0-1.528v-.226c-5.179-.39-7.621-2.246-12.107-.9h-.184v.3h.226c3.617-1.4,7.989.572,12.065.831m0-1.529v-.224c-5.179-.39-7.621-2.246-12.107-.9h-.184v.3h.226c3.617-1.4,7.989.571,12.065.829m0-1.528v-.224c-5.179-.392-7.621-2.248-12.107-.9h-.184v.3h.226c3.617-1.4,7.989.571,12.065.829m0-1.528v-.226c-5.179-.392-7.621-2.246-12.107-.9h-.184v.3h.226c3.617-1.4,7.989.571,12.065.829m0-1.528v-.228c-5.179-.39-7.621-2.246-12.107-.9h-.184v.3h.226c3.617-1.4,7.989.571,12.065.829m0-1.528v-.228c-5.179-.39-7.621-2.246-12.107-.9h-.184v.3h.226c3.617-1.4,7.989.571,12.065.829m0-1.529V28.68c-5.179-.39-7.621-2.246-12.107-.9h-.184v.3h.226c3.617-1.4,7.989.571,12.065.829m0-1.528v-.226c-5.179-.39-7.621-2.246-12.107-.9h-.184v.3h.226c3.617-1.4,7.989.572,12.065.831m0-1.529v-.224c-5.179-.392-7.621-2.248-12.107-.9h-.184v.3h.226c3.617-1.4,7.989.572,12.065.829m0-1.528V24.1c-5.179-.392-7.621-2.248-12.107-.9h-.184v.3h.226c3.617-1.4,7.989.572,12.065.829m0-1.46v-.226c-5.179-.39-7.621-2.246-12.107-.9h-.184v.3h.226c3.617-1.4,7.989.571,12.065.829m0-1.562v-.226c-5.179-.392-7.621-2.248-12.107-.9h-.184v.3h.226c3.617-1.4,7.989.571,12.065.831m-31.438-8.751a1.255,1.255,0,0,0-.036-1.965l-1.657-1.564-.328.346,1.659,1.562a.859.859,0,0,1,.071,1.345.887.887,0,0,1-1.387.051l-1.659-1.566-.326.346,1.659,1.566a1.266,1.266,0,0,0,2.005-.122m-3.421,1.247a.854.854,0,0,0-.394-1.024.949.949,0,0,0-1.387.363l-.953,1.385,2.942,2.025.272-.39-1.258-.868.658-.957c.261-.377.552-.281.87-.122.328.142.6.421.8.392l.3-.437a1.818,1.818,0,0,1-.931-.385c-.308-.17-.609-.273-.911.024Zm-.547.448-.56.815-1.028-.7.671-.973a.563.563,0,0,1,.862-.177c.43.3.308.673.055,1.039m-.935,2.632-2.054-.99-.208.428,2.054.99a.859.859,0,0,1,.476,1.261.892.892,0,0,1-1.309.47l-2.056-.992-.206.43,2.056.988a1.266,1.266,0,0,0,1.876-.724,1.256,1.256,0,0,0-.629-1.863m-2.814,3.363a1.387,1.387,0,0,0-1.571,1.136,1.733,1.733,0,0,0,1.38,2.18,1.712,1.712,0,0,0,2.207-1.121,1.4,1.4,0,0,0-.184-1.247l.461,0,.084-.284-1.8-.534-.441,1.5.383.115.323-1.092a1.072,1.072,0,0,1,.793,1.425,1.283,1.283,0,0,1-1.712.771c-.735-.217-1.353-.775-1.108-1.6a.968.968,0,0,1,1.054-.793Zm1.36,4.245-3.724.915-.069.52,3.358,1.852.064-.485-1.013-.538.2-1.5,1.117-.246Zm-1.6.862-.159,1.2-1.571-.82v-.009Zm-2.4,4.1.029,1.681,3.571-.06-.009-.474-1.524.024-.02-1.159c-.007-.459.288-.55.636-.605.348-.075.735-.007.877-.144l-.007-.532a1.8,1.8,0,0,1-.983.228c-.348.038-.653.131-.725.547h-.009a.861.861,0,0,0-.917-.605c-.569.009-.93.432-.919,1.1m.4.018a.561.561,0,0,1,.6-.643c.52-.009.642.368.649.813l.015.99-1.245.02Zm3.225,2.26-3.3,1.947.082.518,3.751.808-.077-.485-1.128-.221-.241-1.491,1-.558Zm-1.1,2.481-1.743-.334v-.009l1.551-.851Zm1.757,1.391-3.381,1.143.21.618,3.2.106-2.483,2.029.208.616,3.383-1.145-.144-.425-2.813.953-.005-.011,2.457-2.009-.129-.385-3.172-.1,0-.009,2.814-.952Zm.447,4.913-2,1.092.226.416,2-1.09a.86.86,0,0,1,1.3.35.89.89,0,0,1-.383,1.336l-2,1.092.226.416,2-1.09a1.266,1.266,0,0,0,.507-1.945,1.255,1.255,0,0,0-1.879-.576m2.093,4.985-2.058-.324.372.49,2.512.361-1.416,1.079.288.379,2.842-2.162-.288-.379-1,.756-.8-.137.656-2.12-.363-.478Zm8.584,3.223a.755.755,0,0,0,.78.828.69.69,0,0,0,.736-.647h-.354a.383.383,0,0,1-.383.366c-.306,0-.425-.281-.425-.547,0-.49.257-.587.441-.587a.342.342,0,0,1,.366.3h.354a.65.65,0,0,0-.724-.583.777.777,0,0,0-.793.868m2.472.786v-.948a.394.394,0,0,1,.39-.425c.208,0,.308.109.315.361v1.012h.352V48.4a.508.508,0,0,0-.567-.547.562.562,0,0,0-.481.257h-.009v-.826h-.352v2.222Zm-.386,4.989.766.545-.281.9v0l.755-.56.764.54,0,0-.3-.891h0l.753-.56-.939.011-.3-.891,0,.005-.277.891h0Zm1.234.35h0v0h0l.006,0,0,0h0v0h0Zm-.007,0h0v0Zm1.367-5.3a.836.836,0,0,0,.556-.2.24.24,0,0,0,.273.2,1.012,1.012,0,0,0,.224-.038v-.248a.567.567,0,0,1-.087.005c-.064,0-.084-.033-.084-.12v-.826c0-.339-.328-.467-.642-.468-.357,0-.707.124-.733.538h.354c.016-.175.157-.257.357-.257.142,0,.332.033.332.217,0,.21-.228.18-.483.228-.3.035-.618.1-.618.5a.488.488,0,0,0,.55.468m-.2-.483c0-.188.137-.242.29-.27a1.162,1.162,0,0,0,.434-.1v.264c0,.226-.241.3-.4.3-.124,0-.326-.044-.326-.2m2.107-1.168h-.334v1.61h.354v-.767c0-.354.193-.549.436-.549.051,0,.1.011.153.015v-.341a.726.726,0,0,0-.135-.011.518.518,0,0,0-.468.355h-.005Zm.217,6.017v.445h.849V56.8h.62v-3.46h-.461c-.082.417-.534.578-1.008.574m1.318-4.366a.831.831,0,0,0,.558-.2c.027.144.131.2.273.2a.961.961,0,0,0,.222-.038v-.248a.534.534,0,0,1-.086.005c-.066,0-.084-.033-.084-.12v-.826c0-.339-.33-.467-.645-.467-.352,0-.705.122-.729.536h.355c.015-.175.155-.257.354-.257.144,0,.332.033.332.217,0,.21-.228.18-.481.228-.3.035-.618.1-.618.5a.488.488,0,0,0,.549.468m.131-.281c-.124,0-.326-.044-.326-.2,0-.188.137-.242.29-.27a1.189,1.189,0,0,0,.436-.1v.264c0,.226-.244.3-.4.3m1.371-.547a.754.754,0,0,0,.778.828.692.692,0,0,0,.738-.647h-.355a.381.381,0,0,1-.383.366c-.308,0-.427-.281-.427-.547,0-.49.259-.587.443-.587a.341.341,0,0,1,.366.3h.355a.652.652,0,0,0-.725-.583.776.776,0,0,0-.791.868m2.166,6.482.009.011c-.035.456-.1,1.187-.715,1.187a.484.484,0,0,1-.5-.474h-.565a1,1,0,0,0,1.044.942c.979,0,1.305-.962,1.305-1.79,0-1.006-.244-1.806-1.221-1.806a1.115,1.115,0,0,0-1.192,1.179,1.068,1.068,0,0,0,1.092,1.168.833.833,0,0,0,.747-.417m-.046-.756a.65.65,0,0,1-.627.729c-.41,0-.6-.35-.6-.729s.193-.7.6-.7a.635.635,0,0,1,.627.7m.458-5.425v-.859h.321V47.9l-.321,0v-.481h-.355V47.9h-.268v.264h.268v.948c.007.266.077.41.445.41a2.017,2.017,0,0,0,.231-.02v-.272a.7.7,0,0,1-.149.011c-.159,0-.171-.073-.171-.219m.809-.319a.762.762,0,0,0,.786.846.7.7,0,0,0,.727-.547h-.334a.375.375,0,0,1-.394.266.426.426,0,0,1-.43-.474h1.179a.793.793,0,0,0-.758-.941.791.791,0,0,0-.777.849m.355-.142a.42.42,0,0,1,.421-.427.422.422,0,0,1,.4.427Zm-.19,7.222a1.1,1.1,0,0,0,1.219,1.088,1.1,1.1,0,0,0,1.221-1.088.824.824,0,0,0-.633-.846v-.009a.726.726,0,0,0,.489-.711c0-.591-.39-.944-1.077-.946s-1.077.355-1.077.946a.728.728,0,0,0,.489.711v.009a.824.824,0,0,0-.631.846m1.763-1.538a.493.493,0,0,1-.543.509.493.493,0,0,1-.543-.509.5.5,0,0,1,.543-.527.5.5,0,0,1,.543.527m-1.2,1.538a.6.6,0,0,1,.656-.607.6.6,0,0,1,.658.607.614.614,0,0,1-.658.642.612.612,0,0,1-.656-.642m2.178-7.592c.049,0,.1.011.153.015v-.341a.719.719,0,0,0-.133-.011.517.517,0,0,0-.47.355h-.005V47.9h-.334v1.61h.352l0-.767c0-.354.191-.549.434-.549m1.8-.571h.354v-.335h-.354Zm.354.279-.354,0v1.61h.354Zm-.21,5.441-1.48,2.082v.56h1.48V56.8h.534V55.98h.445v-.447h-.445V53.339Zm-.009.673h.009v1.522h-1.046Zm.831-5.024c.005.379.3.56.713.56.332,0,.716-.14.716-.521,0-.317-.261-.41-.518-.47s-.525-.084-.525-.259c0-.139.191-.164.3-.164.153,0,.294.047.326.215h.368a.592.592,0,0,0-.669-.5c-.294,0-.673.109-.673.461,0,.326.255.421.514.476s.518.08.529.268-.226.21-.359.21c-.19,0-.346-.075-.365-.279Zm3.2.518h.352v-2.22h-.352Zm0-2.222,1.059.335h.355v-.335h-.355Zm.357.279h-.355v1.608h.355Zm-1.939,6.6.766.545-.279.9,0,0,.756-.56.762.54,0,0-.3-.891h0l.755-.56-.939.011-.3-.891,0,.005-.277.891h0Zm1.238.348h0l.005,0Zm-.006,0,0,0v0Zm-.005,0h0v0Zm1.513-6.947-.264,0v.266h.264v1.343h.355V48.162h.3V47.9l-.3,0V47.73c0-.131.078-.166.175-.166a.515.515,0,0,1,.164.02v-.277a.937.937,0,0,0-.25-.024c-.23,0-.445.071-.445.479Zm1.108.8a.764.764,0,0,0,.787.846.7.7,0,0,0,.725-.547h-.335a.369.369,0,0,1-.39.266.429.429,0,0,1-.434-.474h1.183a.8.8,0,0,0-.756-.941.792.792,0,0,0-.78.849m.354-.142a.423.423,0,0,1,.427-.427.424.424,0,0,1,.4.427Zm55.35-15.006c0,2.882,1.8,5.622,6.475,5.622s6.471-2.74,6.471-5.622-1.794-5.627-6.471-5.627-6.475,2.742-6.475,5.627m2.842,0A3.3,3.3,0,0,1-72.9,30.018a3.3,3.3,0,0,1,3.629,3.536A3.29,3.29,0,0,1-72.9,37.081a3.293,3.293,0,0,1-3.633-3.527m15.257-9.1h-2.723V38.784h2.723Zm5.685,0h-2.727V38.784h2.727Zm27.333,12.532v1.263c0,1.36-.454,3.02-3.571,3.02-1.657,0-2.94-.217-3.217-1.56h-2.842c.237,2.705,2.9,3.414,6.139,3.414,4.617,0,6.218-2.211,6.218-4.7V28.28h-2.727v1.542h-.038c-.631-1.108-2.191-1.777-4.3-1.777-4.027,0-5.8,2.645-5.8,5.328,0,3.89,3.059,5.292,5.824,5.292a5.761,5.761,0,0,0,4.264-1.679Zm0-3.689a3.248,3.248,0,0,1-3.513,3.274c-2.862,0-3.788-1.7-3.788-3.234A3.28,3.28,0,0,1-32,30.134c1.4,0,3.748.651,3.748,3.163m5.272.352c0,2.787,1.757,5.527,6.475,5.527,3.987,0,5.407-2.306,6-3.472h-2.96a3.185,3.185,0,0,1-3.119,1.5c-2.7,0-3.493-1.8-3.555-2.962h9.871v-.394c0-3.062-1.775-5.921-6.415-5.921-3.709,0-6.3,2.231-6.3,5.722m2.84-1.145a3.387,3.387,0,0,1,3.5-2.721A3.332,3.332,0,0,1-13.112,32.5ZM18.131,28.32v-.809c0-.95.219-1.243,1.462-1.243a12.407,12.407,0,0,1,1.4.08V24.372c-.633-.04-1.265-.077-2.45-.077-2.84,0-3.137,1.52-3.137,2.681V28.32H13.257v1.972h2.151v8.489h2.723V30.293h2.864V28.32Zm7.207,18.928h-1.7V56.2h1.7V52.686A1.876,1.876,0,0,1,27.373,50.8c1.407,0,1.642.8,1.642,1.506v3.9h1.7V51.762c0-1.763-1.367-2.269-2.774-2.269a3.151,3.151,0,0,0-2.579,1.158h-.024Zm3.352-16.956h2.173V35.86c0,1.972.255,3.163,3.571,3.163a13.892,13.892,0,0,0,2.093-.162V36.888c-.653.022-1.283.04-1.954.04-.93,0-.986-.651-.986-1.854V30.293h2.84V28.32h-2.84V25.083H30.863V28.32H28.691ZM33.913,54.4c0,1.281.961,2.045,2.663,2.045a4.216,4.216,0,0,0,3.073-.9c.047.25.17.842,1.28.842a5.209,5.209,0,0,0,1.21-.149V55.047a4.4,4.4,0,0,1-.554.036.33.33,0,0,1-.372-.372v-3.1c0-.851-.1-2.195-3.516-2.195-1.936,0-3.2.529-3.452,2.244h1.664c.064-.729.667-1.086,1.788-1.086.988,0,1.852.186,1.852.937,0,.507-.259.592-2.7.828-1.086.1-2.935.259-2.935,2.062m1.774-.062c0-.556.308-.837,1.595-.986a8.231,8.231,0,0,0,2.229-.406v.627c0,1.444-1.542,1.792-2.454,1.792-.581,0-1.371-.162-1.371-1.026m9.092-15.166c3.987,0,5.407-2.306,6-3.472H47.816A3.18,3.18,0,0,1,44.7,37.2c-2.705,0-3.494-1.8-3.555-2.962h9.869v-.394c0-3.062-1.774-5.921-6.413-5.921-3.713,0-6.3,2.231-6.3,5.722,0,2.787,1.754,5.527,6.475,5.527M41.144,32.5a3.382,3.382,0,0,1,3.5-2.721A3.327,3.327,0,0,1,48.173,32.5Zm5.536,17.16h-1.7V56.2h1.7V53.044a1.925,1.925,0,0,1,2.085-1.972,3.336,3.336,0,0,1,1.085.159V49.556a3.88,3.88,0,0,0-.678-.064,2.73,2.73,0,0,0-2.47,1.442H46.68ZM52.5,54.4c0,1.281.962,2.045,2.663,2.045a4.226,4.226,0,0,0,3.075-.9c.047.25.171.842,1.28.842a5.177,5.177,0,0,0,1.209-.149V55.047a4.367,4.367,0,0,1-.552.036.329.329,0,0,1-.372-.372v-3.1c0-.851-.1-2.195-3.514-2.195-1.939,0-3.208.529-3.454,2.244H54.5c.064-.729.665-1.086,1.79-1.086.986,0,1.85.186,1.85.937,0,.507-.259.592-2.7.828-1.086.1-2.935.259-2.935,2.062m1.775-.062c0-.556.308-.837,1.593-.986a8.248,8.248,0,0,0,2.231-.406v.627c0,1.444-1.542,1.792-2.454,1.792-.583,0-1.371-.162-1.371-1.026m9.008-1.407c0,1.8,1.119,3.514,4.043,3.514.454,0,3.232-.036,3.626-2.751H69.179a1.824,1.824,0,0,1-2.036,1.447,2.011,2.011,0,0,1-2.085-2.211,2.1,2.1,0,0,1,2.271-2.207,1.719,1.719,0,0,1,1.812,1.236H70.92c-.359-2.207-2.6-2.543-3.591-2.543-2.53,0-4.043,1.407-4.043,3.514m7.031-19.778a3.005,3.005,0,0,1,3.256-3.022c2.253,0,2.629,1.285,2.629,2.412v6.236h2.723V31.676c0-2.822-2.193-3.631-4.442-3.631A5.033,5.033,0,0,0,70.357,29.9h-.04V24.454H67.594V38.782h2.723Zm4.327,16.508H73.288V50.9h1.356v3.48c0,1.234.162,1.97,2.231,1.97a8.931,8.931,0,0,0,1.311-.095V55.02c-.408.013-.8.027-1.221.027-.583,0-.62-.412-.62-1.163V50.9h1.777V49.664H76.345V47.642h-1.7Zm6.378,3.328c0,1.741,1.1,3.456,4.049,3.456a3.821,3.821,0,0,0,3.75-2.167H86.97a2,2,0,0,1-1.952.937,1.976,1.976,0,0,1-2.22-1.854h6.168V53.12c0-1.914-1.11-3.7-4.008-3.7-2.32,0-3.936,1.393-3.936,3.573m1.775-.709a2.115,2.115,0,0,1,2.182-1.706,2.085,2.085,0,0,1,2.211,1.706Zm11.141-2.619h-1.7V56.2h1.7V53.044a1.923,1.923,0,0,1,2.084-1.972,3.349,3.349,0,0,1,1.088.159V49.556a3.936,3.936,0,0,0-.68-.064,2.724,2.724,0,0,0-2.468,1.442h-.024Zm7.938-10.489c4.676,0,6.475-2.74,6.475-5.622s-1.8-5.627-6.475-5.627S95.4,30.668,95.4,33.554s1.8,5.622,6.473,5.622m-3.633-5.622a3.633,3.633,0,0,1,7.264,0,3.634,3.634,0,0,1-7.264,0m9.991,13.695h-1.7v1.38h1.7Zm0,2.415h-1.7V56.2h1.7Zm5.046,4.491h-1.85c.062,2,2.269,2.293,3.664,2.293,2.025,0,3.617-.565,3.617-2.229,0-1.52-1.407-1.728-3.555-2.036-1.642-.235-1.8-.321-1.8-.855,0-.343.516-.751,1.48-.751.58,0,1.715.109,1.854,1.086h1.772c-.1-2.094-2.528-2.244-3.54-2.244-1.1,0-3.268.244-3.268,2.107,0,1.493,1.061,1.728,3.082,2,1.841.244,2.124.421,2.124.922,0,.62-.926.842-1.775.842-.62,0-1.755-.146-1.8-1.136m9.125-14.98c4.677,0,6.473-2.74,6.473-5.622s-1.8-5.627-6.473-5.627-6.477,2.742-6.477,5.627,1.8,5.622,6.477,5.622m-3.635-5.622a3.633,3.633,0,0,1,7.264,0,3.634,3.634,0,0,1-7.264,0m11.274,13.695h-1.7V56.2h1.7Zm5.277,0h-1.7v1.38h1.7Zm0,2.415h-1.7V56.2h1.7Zm4.049,0h-1.343V50.9h1.343V56.2h1.7V50.9h1.79V49.664h-1.79v-.5c0-.592.133-.778.911-.778a8.314,8.314,0,0,1,.879.046V47.2c-.394-.027-.793-.049-1.535-.049-1.772,0-1.958.95-1.958,1.677ZM148.1,28.32h-2.96l4.876,10.286-.611,1.261a1.513,1.513,0,0,1-1.58.809c-.592,0-1.147-.018-1.362-.04V42.73c.532.018,1.243.036,1.7.036,2.268,0,2.937-.334,3.766-2.129l5.7-12.317h-2.9L151.457,35.8Zm-2.8,24.672c0,1.741,1.1,3.456,4.047,3.456a3.813,3.813,0,0,0,3.748-2.167h-1.85a2.342,2.342,0,0,1-4.165-.917h6.165V53.12c0-1.914-1.108-3.7-4.008-3.7-2.32,0-3.935,1.393-3.935,3.573m1.779-.709a2.11,2.11,0,0,1,2.182-1.706,2.082,2.082,0,0,1,2.207,1.706Z" transform="translate(192.142 16.071)" fill="#1b2840"/>
      </g>
    </g>
  </g>
</svg>
