<?xml version="1.0" standalone="no"?>
<!DOCTYPE svg PUBLIC "-//W3C//DTD SVG 20010904//EN"
 "http://www.w3.org/TR/2001/REC-SVG-20010904/DTD/svg10.dtd">
<svg version="1.0" xmlns="http://www.w3.org/2000/svg"
 width="215.000000pt" height="215.000000pt" viewBox="0 0 215.000000 215.000000"
 preserveAspectRatio="xMidYMid meet">
<metadata>
Created by potrace 1.16, written by Peter Selinger 2001-2019
</metadata>
<g transform="translate(0.000000,215.000000) scale(0.100000,-0.100000)"
fill="#000000" stroke="none">
<path d="M1057 2077 c-9 -14 -49 -46 -87 -72 -39 -25 -78 -58 -87 -73 l-16
-28 -37 18 c-21 11 -71 22 -111 25 -41 3 -86 12 -101 19 -36 19 -38 18 -38
-12 0 -14 -20 -64 -45 -111 -25 -47 -45 -97 -45 -112 0 -25 -3 -27 -28 -23
-18 2 -61 -10 -116 -32 -47 -20 -98 -36 -112 -36 -21 0 -25 -3 -18 -17 4 -10
10 -68 13 -129 4 -65 11 -117 18 -126 10 -12 7 -17 -21 -31 -19 -9 -59 -47
-90 -86 -31 -38 -65 -72 -76 -76 -25 -8 -26 -21 -1 -34 10 -6 35 -43 55 -84
19 -40 49 -86 65 -101 l29 -28 -19 -33 c-11 -18 -26 -68 -34 -111 -9 -43 -22
-88 -30 -100 -15 -24 -11 -34 15 -34 10 0 50 -22 91 -50 41 -27 88 -53 106
-56 32 -6 33 -8 33 -55 0 -26 7 -70 16 -96 9 -26 19 -67 23 -92 l6 -45 142 0
143 -1 11 -28 c7 -15 39 -56 73 -90 34 -35 66 -71 72 -82 11 -19 12 -19 31 -3
10 10 50 29 88 43 38 14 81 35 97 46 l28 21 34 -30 c19 -17 59 -39 90 -51 102
-38 98 -38 148 21 51 60 78 107 78 137 0 18 4 20 33 14 17 -4 41 -7 52 -6 11
0 61 3 110 6 l90 5 7 44 c3 23 13 63 22 87 9 24 16 68 16 97 0 48 2 54 20 54
26 0 68 21 129 65 25 18 59 37 74 40 29 8 32 16 17 45 -6 10 -17 53 -25 96 -8
42 -23 91 -34 109 l-19 33 30 29 c16 15 45 57 63 93 18 36 42 74 54 84 27 24
26 30 -3 44 -14 6 -47 40 -75 75 -27 35 -66 72 -85 82 -29 16 -33 22 -23 34 7
8 14 61 18 125 3 61 9 119 13 129 7 14 3 17 -23 17 -17 0 -62 14 -99 31 -37
17 -86 32 -108 32 -41 2 -42 3 -47 40 -3 21 -22 66 -42 100 -21 34 -40 79 -43
100 -5 42 -5 42 -35 23 -12 -7 -58 -17 -102 -20 -46 -4 -95 -15 -116 -25 l-35
-19 -16 29 c-9 16 -48 49 -87 74 -38 25 -78 57 -88 71 l-19 26 -17 -25z m248
-247 c266 -85 463 -283 547 -550 20 -64 23 -96 23 -220 0 -171 -13 -231 -79
-365 -105 -213 -292 -366 -521 -426 -111 -29 -288 -29 -400 0 -300 79 -524
312 -590 615 -21 95 -16 286 10 381 58 212 213 405 405 504 145 74 221 91 400
87 105 -3 150 -8 205 -26z"/>
<path d="M965 1779 c-281 -40 -517 -252 -597 -536 -26 -93 -30 -266 -9 -353
82 -335 380 -570 721 -570 300 0 582 200 683 485 71 199 58 386 -39 583 -37
76 -61 109 -127 176 -125 125 -232 183 -394 211 -93 16 -146 17 -238 4z m205
-461 c80 2 178 0 218 -3 l72 -7 0 -300 0 -300 -27 6 c-182 38 -444 43 -596 12
-131 -27 -117 -61 -117 283 l0 300 48 6 c26 4 52 8 57 11 6 2 53 0 105 -4 52
-4 160 -6 240 -4z"/>
</g>
</svg>
